<svg id="Layer_1" data-name="Layer 1" xmlns="http://www.w3.org/2000/svg" viewBox="0 0 250 250"><defs><style>.cls-1,.cls-2{fill:none;stroke:#2082c3;stroke-miterlimit:10;}.cls-1{stroke-width:7px;}.cls-2{stroke-width:4px;}.cls-3{fill:#2082c3;}</style></defs><path class="cls-1" d="M185.16,233.59A280.76,280.76,0,0,1,156.41,219c-6.28-3.73-12.78-7.06-19.1-10.72,0,0-1.43-.83-5-2.56-5.85-2.86-7-2.91-7.79-2.85s-2.66.86-6.09,2.43c-2.41,1.11-3.77,1.8-3.78,1.8-14.92,7.53-20.44,10.52-20.44,10.52L64.84,233.59,125.76,55.36Z"/><line class="cls-1" x1="185.16" y1="233.59" x2="82.07" y2="181.4"/><line class="cls-1" x1="65.36" y1="232.08" x2="167.83" y2="181.59"/><line class="cls-1" x1="167.83" y1="181.59" x2="94.28" y2="147.46"/><line class="cls-1" x1="83.74" y1="182.25" x2="154.81" y2="147.46"/><line class="cls-1" x1="94.28" y1="147.46" x2="147.54" y2="120.73"/><line class="cls-1" x1="154.81" y1="147.46" x2="103.76" y2="120.95"/><line class="cls-1" x1="147.54" y1="120.73" x2="112.27" y2="99.9"/><line class="cls-1" x1="103.76" y1="120.95" x2="141.19" y2="98.68"/><line class="cls-1" x1="112.27" y1="99.9" x2="133.66" y2="86.27"/><line class="cls-1" x1="141.19" y1="98.68" x2="116.58" y2="82.21"/><path class="cls-2" d="M136.85,29.71a26.33,26.33,0,0,1,1.07,37.23"/><path class="cls-2" d="M140.35,20.5a35.28,35.28,0,0,1,8.05,49.27"/><path class="cls-2" d="M147.7,11.09a45.72,45.72,0,0,1,10.67,63.82"/><path class="cls-2" d="M108.79,66.62A26.32,26.32,0,0,1,114,29.74"/><path class="cls-2" d="M100.29,72.09a35.27,35.27,0,0,1,7-49.42"/><path class="cls-2" d="M90.2,77.12a45.73,45.73,0,0,1,9.73-64"/><circle class="cls-3" cx="125" cy="48.32" r="8.22"/></svg>