<svg id="Layer_1" data-name="Layer 1" xmlns="http://www.w3.org/2000/svg" viewBox="0 0 250 250"><defs><style>.cls-1{fill:none;stroke:#2082c3;stroke-miterlimit:10;}.cls-2{fill:#2082c3;}.cls-3{fill:#fff;}</style></defs><rect class="cls-1" x="16.25" y="179.78" width="185.13" height="42.34" rx="2.58"/><rect class="cls-2" x="18.95" y="182.06" width="6.29" height="2.65"/><rect class="cls-2" x="26.82" y="182.06" width="9.44" height="2.65"/><rect class="cls-2" x="18.95" y="194.39" width="7.87" height="5.3"/><rect class="cls-2" x="127.79" y="194.39" width="9.97" height="5.3"/><rect class="cls-2" x="18.95" y="214.17" width="7.87" height="5.3"/><rect class="cls-2" x="28.46" y="214.17" width="11.01" height="5.3"/><rect class="cls-2" x="41.38" y="214.17" width="7.87" height="5.3"/><rect class="cls-2" x="110.15" y="214.17" width="7.87" height="5.3"/><rect class="cls-2" x="119.65" y="214.17" width="7.87" height="5.3"/><rect class="cls-2" x="129.43" y="214.17" width="7.87" height="5.3"/><rect class="cls-2" x="50.82" y="214.17" width="57.31" height="5.3"/><rect class="cls-2" x="19.02" y="200.97" width="12.52" height="5.3"/><rect class="cls-2" x="18.95" y="207.58" width="15.73" height="5.3"/><rect class="cls-2" x="123.72" y="207.58" width="14.04" height="5.3"/><rect class="cls-2" x="167.59" y="214.17" width="14.04" height="5.3"/><rect class="cls-2" x="120.57" y="200.72" width="17.19" height="5.3"/><rect class="cls-2" x="125.17" y="187.67" width="12.59" height="5.3"/><rect class="cls-2" x="18.95" y="187.67" width="6.29" height="5.3"/><rect class="cls-2" x="26.82" y="187.67" width="9.44" height="5.3"/><rect class="cls-2" x="38.1" y="182.06" width="6.29" height="2.65"/><rect class="cls-2" x="45.96" y="182.06" width="6.29" height="2.65"/><rect class="cls-2" x="38.1" y="187.67" width="6.29" height="5.3"/><rect class="cls-2" x="45.96" y="187.67" width="6.29" height="5.3"/><rect class="cls-2" x="53.9" y="182.06" width="6.29" height="2.65"/><rect class="cls-2" x="61.76" y="182.06" width="6.29" height="2.65"/><rect class="cls-2" x="53.9" y="187.67" width="6.29" height="5.3"/><rect class="cls-2" x="61.76" y="187.67" width="6.29" height="5.3"/><rect class="cls-2" x="69.9" y="182.06" width="6.29" height="2.65"/><rect class="cls-2" x="77.76" y="182.06" width="6.29" height="2.65"/><rect class="cls-2" x="69.9" y="187.67" width="6.29" height="5.3"/><rect class="cls-2" x="77.76" y="187.67" width="6.29" height="5.3"/><rect class="cls-2" x="28.46" y="194.39" width="9.44" height="5.3"/><rect class="cls-2" x="39.74" y="194.39" width="6.29" height="5.3"/><rect class="cls-2" x="47.6" y="194.39" width="6.29" height="5.3"/><rect class="cls-2" x="33.24" y="200.97" width="6.29" height="5.3"/><rect class="cls-2" x="41.38" y="200.97" width="6.29" height="5.3"/><rect class="cls-2" x="49.24" y="200.97" width="6.29" height="5.3"/><rect class="cls-2" x="55.54" y="194.39" width="6.29" height="5.3"/><rect class="cls-2" x="63.67" y="194.39" width="6.29" height="5.3"/><rect class="cls-2" x="71.54" y="194.39" width="6.29" height="5.3"/><rect class="cls-2" x="57.18" y="200.97" width="6.29" height="5.3"/><rect class="cls-2" x="65.31" y="200.97" width="6.29" height="5.3"/><rect class="cls-2" x="73.18" y="200.97" width="6.29" height="5.3"/><rect class="cls-2" x="36.52" y="207.54" width="6.29" height="5.3"/><rect class="cls-2" x="44.66" y="207.54" width="6.29" height="5.3"/><rect class="cls-2" x="52.52" y="207.54" width="6.29" height="5.3"/><rect class="cls-2" x="60.19" y="207.54" width="6.29" height="5.3"/><rect class="cls-2" x="68.32" y="207.54" width="6.29" height="5.3"/><rect class="cls-2" x="76.19" y="207.54" width="6.29" height="5.3"/><rect class="cls-2" x="77.76" y="182.06" width="6.29" height="2.65"/><rect class="cls-2" x="85.63" y="182.06" width="6.29" height="2.65"/><rect class="cls-2" x="77.76" y="187.67" width="6.29" height="5.3"/><rect class="cls-2" x="85.63" y="187.67" width="6.29" height="5.3"/><rect class="cls-2" x="93.56" y="182.06" width="6.29" height="2.65"/><rect class="cls-2" x="101.43" y="182.06" width="6.29" height="2.65"/><rect class="cls-2" x="93.56" y="187.67" width="6.29" height="5.3"/><rect class="cls-2" x="101.43" y="187.67" width="6.29" height="5.3"/><rect class="cls-2" x="109.56" y="182.06" width="6.29" height="2.65"/><rect class="cls-2" x="117.43" y="182.06" width="6.29" height="2.65"/><rect class="cls-2" x="131.47" y="182.06" width="6.29" height="2.65"/><rect class="cls-2" x="167.32" y="182.06" width="6.29" height="2.65"/><rect class="cls-2" x="109.56" y="187.67" width="6.29" height="5.3"/><rect class="cls-2" x="141.77" y="187.67" width="6.29" height="5.3"/><rect class="cls-2" x="149.64" y="187.67" width="6.29" height="5.3"/><rect class="cls-2" x="157.77" y="187.67" width="6.29" height="5.3"/><rect class="cls-2" x="141.64" y="194.2" width="6.29" height="5.3"/><rect class="cls-2" x="149.51" y="194.2" width="6.29" height="5.3"/><rect class="cls-2" x="149.64" y="207.58" width="6.29" height="5.3"/><rect class="cls-2" x="157.64" y="194.2" width="6.29" height="5.3"/><rect class="cls-2" x="167.45" y="187.67" width="6.29" height="5.3"/><rect class="cls-2" x="175.32" y="187.67" width="6.29" height="5.3"/><rect class="cls-2" x="183.45" y="187.67" width="6.29" height="5.3"/><rect class="cls-2" x="191.45" y="187.67" width="6.29" height="5.3"/><rect class="cls-2" x="191.45" y="194.2" width="6.29" height="11.83"/><rect class="cls-2" x="191.45" y="207.25" width="6.29" height="12.23"/><rect class="cls-2" x="167.32" y="194.2" width="6.29" height="5.3"/><rect class="cls-2" x="175.19" y="194.2" width="6.29" height="5.3"/><rect class="cls-2" x="183.32" y="194.2" width="6.29" height="5.3"/><rect class="cls-2" x="167.59" y="200.72" width="6.29" height="5.3"/><rect class="cls-2" x="175.45" y="200.72" width="6.29" height="5.3"/><rect class="cls-2" x="183.59" y="200.72" width="6.29" height="5.3"/><rect class="cls-2" x="167.45" y="207.25" width="6.29" height="5.3"/><rect class="cls-2" x="175.32" y="207.25" width="6.29" height="5.3"/><rect class="cls-2" x="183.45" y="207.25" width="6.29" height="5.3"/><rect class="cls-2" x="183.59" y="214.17" width="6.29" height="5.3"/><rect class="cls-2" x="141.51" y="214.17" width="6.29" height="5.3"/><rect class="cls-2" x="149.37" y="214.17" width="6.29" height="5.3"/><rect class="cls-2" x="157.51" y="214.17" width="6.29" height="5.3"/><rect class="cls-2" x="117.43" y="187.67" width="6.29" height="5.3"/><rect class="cls-2" x="119.49" y="194.2" width="6.29" height="5.3"/><rect class="cls-2" x="79.4" y="194.39" width="6.29" height="5.3"/><rect class="cls-2" x="87.27" y="194.39" width="6.29" height="5.3"/><rect class="cls-2" x="81.04" y="200.97" width="6.29" height="5.3"/><rect class="cls-2" x="88.91" y="200.97" width="6.29" height="5.3"/><rect class="cls-2" x="95.2" y="194.39" width="6.29" height="5.3"/><rect class="cls-2" x="103.34" y="194.39" width="6.29" height="5.3"/><rect class="cls-2" x="111.2" y="194.39" width="6.29" height="5.3"/><rect class="cls-2" x="96.84" y="200.97" width="6.29" height="5.3"/><rect class="cls-2" x="104.98" y="200.97" width="6.29" height="5.3"/><rect class="cls-2" x="112.84" y="200.97" width="6.29" height="5.3"/><rect class="cls-2" x="76.19" y="207.54" width="6.29" height="5.3"/><rect class="cls-2" x="84.32" y="207.54" width="6.29" height="5.3"/><rect class="cls-2" x="92.19" y="207.54" width="6.29" height="5.3"/><rect class="cls-2" x="99.86" y="207.54" width="6.29" height="5.3"/><rect class="cls-2" x="107.99" y="207.54" width="6.29" height="5.3"/><rect class="cls-2" x="115.85" y="207.54" width="6.29" height="5.3"/><path class="cls-2" d="M28.82,26.52H217.5A10.44,10.44,0,0,1,227.95,37V133.3a10.44,10.44,0,0,1-10.44,10.44H26.82A10.44,10.44,0,0,1,16.37,133.3V39A12.44,12.44,0,0,1,28.82,26.52Z"/><rect class="cls-3" x="25.79" y="35.02" width="193.42" height="91.23"/><ellipse class="cls-3" cx="166.5" cy="135.31" rx="2.36" ry="1.99"/><ellipse class="cls-3" cx="176" cy="135.31" rx="2.36" ry="1.99"/><ellipse class="cls-3" cx="185.5" cy="135.31" rx="2.36" ry="1.99"/><ellipse class="cls-3" cx="195.23" cy="135.31" rx="2.36" ry="1.99"/><ellipse class="cls-3" cx="213.53" cy="135.31" rx="5.51" ry="4.64"/><rect class="cls-2" x="110.62" y="142.08" width="26.24" height="18.77"/><path class="cls-2" d="M158.31,170.51H86l4.72-19.2,65.52.05Q157.26,160.93,158.31,170.51Z"/><ellipse class="cls-2" cx="213.53" cy="135.31" rx="2.75" ry="2.32"/><rect class="cls-1" x="209.82" y="189.35" width="23.93" height="34.13" rx="7.03"/><rect class="cls-2" x="213.08" y="192.2" width="17.41" height="28.44" rx="5.17"/></svg>